<svg width="261" height="56" viewBox="0 0 261 56" fill="none" xmlns="http://www.w3.org/2000/svg">
<path d="M51.0701 3.35386C51.6972 3.68939 52.1772 4.16217 52.5924 4.75492C52.9175 5.29887 53.0927 5.85706 53.1759 6.48947C53.1846 6.73551 53.1885 6.97953 53.1875 7.22456L53.1885 7.44519C53.1885 7.68819 53.1885 7.93221 53.1885 8.17521V8.70493C53.1895 9.18889 53.1895 9.67387 53.1895 10.1589C53.1895 10.6815 53.1895 11.2041 53.1904 11.7267C53.1914 12.7505 53.1914 13.7744 53.1914 14.7992C53.1914 15.6309 53.1914 16.4636 53.1914 17.2963C53.1924 19.6561 53.1924 22.017 53.1934 24.3768V24.9554C53.1934 26.9563 53.1934 28.9562 53.1943 30.9571C53.1963 33.2051 53.1972 35.4541 53.1972 37.7021C53.1972 38.8917 53.1972 40.0823 53.1982 41.2719C53.1992 42.2856 53.1992 43.2992 53.1982 44.3129C53.1982 44.8294 53.1982 45.3469 53.1992 45.8634C53.1992 46.3372 53.1992 46.811 53.1992 47.2848C53.1982 47.4556 53.1992 47.6265 53.1992 47.7973C53.205 50.0036 53.205 50.0036 52.8788 50.6797C52.7511 50.8963 52.6127 51.0884 52.4579 51.2836L52.3214 51.4595C51.7543 52.1163 50.9946 52.5383 50.203 52.822C48.9053 53.19 47.5485 53.2053 46.213 53.1992H45.9769C42.405 53.1839 38.925 52.3278 35.7982 50.4743C34.513 49.6874 33.3208 48.7967 32.2592 47.7007L32.0956 47.5339C31.3834 46.809 30.7117 46.0739 30.104 45.2483C30.0053 45.1172 29.9066 44.985 29.8079 44.8538C29.2069 44.0516 28.6253 43.2393 28.0669 42.4045C27.3575 41.3502 26.6279 40.3141 25.8798 39.2903C25.4995 38.7677 25.1269 38.239 24.763 37.7042C24.2201 36.907 23.6559 36.1282 23.0879 35.3504C22.7869 34.9366 22.4888 34.5208 22.1927 34.1029C21.4117 33.0048 20.6037 31.9281 19.7966 30.8504C19.3572 30.2647 18.9227 29.676 18.4872 29.0874C18.2772 28.8037 18.0663 28.519 17.8553 28.2353C17.1711 27.3132 16.4937 26.3869 15.8211 25.4556C15.5985 25.1496 15.3759 24.8435 15.1524 24.5375C14.654 23.8583 14.1624 23.1761 13.6979 22.4705C13.4095 22.0363 13.4095 22.0363 13.0475 21.6723C12.8588 21.7059 12.8588 21.7059 12.6885 21.7669C12.5821 22.8131 12.585 23.8573 12.5869 24.9086C12.5869 25.2004 12.5869 25.4932 12.5859 25.785C12.5859 26.8078 12.5995 27.8297 12.6305 28.8515C12.6934 30.9378 12.703 33.0231 12.703 35.1095C12.703 35.3982 12.703 35.687 12.704 35.9757C12.704 36.9864 12.705 37.997 12.705 39.0086C12.705 39.945 12.7059 40.8815 12.7069 41.8179C12.7079 42.6292 12.7088 43.4406 12.7088 44.2519C12.7088 44.7338 12.7088 45.2158 12.7098 45.6967C12.7108 46.1481 12.7108 46.5985 12.7098 47.049C12.7098 47.2137 12.7098 47.3784 12.7108 47.5421C12.7146 48.873 12.6934 50.1856 12.0595 51.3782C11.6995 51.9262 11.2969 52.3288 10.7414 52.6511C9.72142 53.1178 8.60948 53.1056 7.51497 53.0995L7.1569 53.1016C6.344 53.0995 5.51851 53.0944 4.76174 52.7538C4.13851 52.3136 3.5898 51.8469 3.23077 51.1413C2.87658 50.273 2.88626 49.3834 2.87464 48.4531L2.86884 48.0789C2.86206 47.662 2.85722 47.2452 2.85239 46.8283L2.84658 46.3799C2.76722 39.9938 2.80593 33.6077 2.84755 27.2217C2.85045 26.7906 2.85335 26.3605 2.85626 25.9304C2.86787 24.1023 2.88142 22.2742 2.90271 20.4472L2.90561 20.1584C2.91239 19.6755 2.91916 19.1935 2.9298 18.7106C2.93368 18.5205 2.93658 18.3303 2.93948 18.1402C2.96464 17.156 3.02368 15.9125 3.50561 15.0402C3.85787 14.5603 4.32045 14.1739 4.8469 13.9248C7.3698 12.9803 10.4588 13.2446 13.0475 13.6574L13.2837 13.694C16.5837 14.2288 19.7985 15.8251 22.4163 17.9806L22.6534 18.1839L22.9321 18.4188C24.1475 19.4609 25.1656 20.6119 26.0966 21.9367C26.3443 22.2854 26.5998 22.627 26.8553 22.9697C28.065 24.5985 29.2543 26.2415 30.3817 27.9354C30.9121 28.7315 31.4579 29.5073 32.0356 30.2668C33.1369 31.7217 34.2198 33.196 35.2379 34.716C35.5853 35.2335 35.9559 35.7276 36.3343 36.2197C37.1056 37.2243 37.8266 38.2674 38.5427 39.3147C39.4553 40.6446 40.3853 41.9612 41.3259 43.2677L41.4498 43.4395C42.2511 44.623 42.2511 44.623 43.3011 45.531V45.2798C43.3069 39.7712 43.3146 34.2635 43.3243 28.7569L43.3253 28.4011C43.3282 26.4977 43.3311 24.5954 43.3321 22.6921C43.335 20.739 43.3379 18.7858 43.3417 16.8327C43.3437 15.6279 43.3456 14.423 43.3456 13.2182C43.3466 12.3916 43.3475 11.565 43.3504 10.7394C43.3514 10.2626 43.3524 9.78571 43.3514 9.30886C43.3514 8.87167 43.3524 8.43549 43.3543 7.9983C43.3553 7.8407 43.3553 7.68311 43.3543 7.52552C43.3514 6.48235 43.365 5.41071 43.8566 4.4743C44.2117 3.94764 44.6569 3.53077 45.2143 3.25422C46.8982 2.6208 49.4163 2.64622 51.0701 3.35386Z" fill="#1A8765"/>
<path d="M45.2143 3.25441C46.2405 2.86835 47.5767 2.72734 48.8382 2.83605C49.9527 2.81759 50.2919 2.94521 51.0526 3.34646C51.0584 3.34891 51.0642 3.35129 51.0699 3.35375C51.0908 3.36492 51.1113 3.37692 51.1319 3.38839C51.1827 3.41537 51.236 3.44247 51.2909 3.47179C51.7158 3.74787 52.0753 4.08058 52.3819 4.47439C52.4537 4.5649 52.5245 4.65811 52.5925 4.75512C52.6125 4.78866 52.6305 4.82309 52.6495 4.85675C52.6756 4.89778 52.7026 4.93854 52.7278 4.98071C52.7772 5.08506 52.8216 5.18839 52.8618 5.29106C53.02 5.66917 53.1196 6.06223 53.1758 6.48963C53.1845 6.73257 53.1886 6.97266 53.1877 7.2156V8.67257C53.1877 9.14935 53.1877 9.62632 53.1868 10.1031V11.6471C53.1868 12.5378 53.1864 13.4297 53.1854 14.3213C53.1854 15.6105 53.1845 16.9 53.1845 18.1882C53.1845 20.2795 53.1836 22.3709 53.1827 24.4622C53.1817 26.4936 53.1818 28.5253 53.1808 30.5567V32.8198C53.1799 38.0316 53.1778 43.2433 53.1758 48.455H52.9967L53.0095 48.6177C53.0356 49.2033 53.0356 49.2034 52.9234 49.4941C52.8334 49.6536 52.7358 49.8094 52.6381 49.9639L52.5478 50.1754C52.4288 50.395 52.3021 50.4896 52.0989 50.6238C50.6087 50.8709 48.8242 50.2476 47.4355 49.6996L47.1616 49.5866L46.9551 49.5023C46.0881 49.1016 45.4766 48.2943 44.8834 47.5481C44.5244 47.0997 44.1429 46.6838 43.7423 46.2771C43.513 46.0423 43.3049 45.8085 43.1211 45.531H43.3011V45.2799C43.3069 39.7713 43.3147 34.2636 43.3243 28.757L43.3253 28.4011C43.3282 26.4978 43.3311 24.5955 43.3321 22.6922C43.335 20.7391 43.3378 18.7859 43.3417 16.8329C43.3436 15.628 43.3458 14.4228 43.3458 13.218C43.3467 12.3915 43.3474 11.5648 43.3503 10.7393C43.3513 10.2625 43.3522 9.78558 43.3512 9.30877C43.3512 8.8716 43.3525 8.43526 43.3544 7.99809C43.3554 7.84056 43.3554 7.68303 43.3544 7.5255C43.3532 7.0702 43.3548 6.60948 43.3982 6.15695C43.3959 6.14312 43.3934 6.1282 43.3909 6.11228C43.4059 6.021 43.4178 5.95727 43.4273 5.90356C43.43 5.88407 43.4332 5.86468 43.436 5.84523C43.4407 5.81252 43.4453 5.77982 43.4506 5.74724C43.4545 5.72287 43.4591 5.69862 43.4633 5.67433C43.4704 5.6343 43.4773 5.59428 43.4852 5.55447C43.4958 5.50122 43.5075 5.44823 43.5199 5.39542C43.5214 5.38889 43.5229 5.38235 43.5244 5.37583C43.5516 5.26235 43.5833 5.15008 43.6197 5.03904C43.6227 5.02982 43.6252 5.02044 43.6283 5.01124C43.6297 5.00714 43.631 5.00303 43.6324 4.99894C43.6417 4.9619 43.6505 4.92456 43.6602 4.88728L43.668 4.90187C43.6707 4.89456 43.6734 4.88728 43.6762 4.87999C43.7051 4.80311 43.7357 4.72661 43.7701 4.65122L43.8566 4.47439C43.8982 4.41232 43.9412 4.35189 43.9856 4.29301C43.999 4.27525 44.013 4.25808 44.0266 4.2406C44.1046 4.13823 44.1877 4.04199 44.2755 3.95076C44.2933 3.93206 44.3111 3.91343 44.3292 3.89516C44.3433 3.88123 44.3569 3.86691 44.3712 3.85323C44.5137 3.71449 44.6669 3.5888 44.8314 3.47726C44.89 3.43669 44.9497 3.39757 45.011 3.36014C45.0178 3.3572 45.0248 3.35468 45.0315 3.35193C45.091 3.31759 45.152 3.28529 45.2143 3.25441Z" fill="#3EBD4F"/>
<path d="M43.1211 45.5309C43.3998 45.5258 43.5779 45.537 43.8401 45.6255C44.6666 46.2335 45.3198 47.1252 45.9721 47.9243C46.6659 48.753 47.473 49.1078 48.4524 49.4565C48.9866 49.6436 49.5246 49.7809 50.0782 49.8907L50.3037 49.9639L50.4827 50.2465C50.6675 50.3594 50.6675 50.3594 50.8417 50.4356V50.5292C50.3724 50.5465 49.9524 50.4895 49.4956 50.3706C49.4298 50.3533 49.363 50.337 49.2953 50.3197C48.0072 49.9812 46.7666 49.5897 45.7814 48.6157C45.4659 48.2741 45.1737 47.9142 44.8834 47.5481C44.5243 47.0997 44.143 46.6839 43.7424 46.2772C43.513 46.0423 43.305 45.8085 43.1211 45.5309Z" fill="#3EBD4F"/>
<path d="M52.997 48.455H53.176C53.1992 49.182 53.1915 49.9842 52.9011 50.6573L52.817 50.8128H52.6379C52.4802 50.6004 52.4802 50.6004 52.3679 50.3411C52.4299 50.1286 52.4299 50.1286 52.5479 49.9639L52.7279 49.8693C52.9137 49.4098 52.9573 48.9471 52.997 48.455Z" fill="#3EBD4F"/>
<path d="M252.507 49.28L256.002 24.248H260.571L257.077 49.28H252.507Z" fill="#212121"/>
<path d="M226.537 49.28L238.666 24.248H244.58L249.721 49.28H244.95L243.908 43.904H234.265L231.711 49.28H226.537ZM236.146 39.872H243.135L240.75 27.4736L241.993 27.608L236.146 39.872Z" fill="#212121"/>
<path d="M204.565 49.28V23.8448H207.689V34.6976L207.118 34.3952C207.566 33.2528 208.283 32.368 209.269 31.7408C210.277 31.0912 211.453 30.7664 212.797 30.7664C214.096 30.7664 215.249 31.0576 216.257 31.64C217.288 32.2224 218.094 33.0288 218.677 34.0592C219.281 35.0896 219.584 36.2544 219.584 37.5536V49.28H216.425V38.5616C216.425 37.5536 216.235 36.7024 215.854 36.008C215.496 35.3136 214.992 34.776 214.342 34.3952C213.693 33.992 212.942 33.7904 212.091 33.7904C211.262 33.7904 210.512 33.992 209.84 34.3952C209.168 34.776 208.641 35.3248 208.261 36.0416C207.88 36.736 207.689 37.576 207.689 38.5616V49.28H204.565Z" fill="#212121"/>
<path d="M198.602 49.4817C196.832 49.4817 195.466 48.9777 194.503 47.9697C193.562 46.9617 193.091 45.5393 193.091 43.7025V34.1601H189.799V31.1697H190.471C191.277 31.1697 191.915 30.9233 192.386 30.4305C192.856 29.9377 193.091 29.2881 193.091 28.4817V27.0033H196.216V31.1697H200.282V34.1601H196.216V43.6017C196.216 44.2065 196.306 44.7329 196.485 45.1809C196.687 45.6289 197.011 45.9873 197.459 46.2561C197.907 46.5025 198.501 46.6257 199.24 46.6257C199.397 46.6257 199.587 46.6145 199.811 46.5921C200.058 46.5697 200.282 46.5473 200.483 46.5249V49.2801C200.192 49.3473 199.867 49.3921 199.509 49.4145C199.151 49.4593 198.848 49.4817 198.602 49.4817Z" fill="#212121"/>
<path d="M177.554 49.6832C176.367 49.6832 175.314 49.4704 174.395 49.0448C173.499 48.5968 172.794 47.992 172.279 47.2304C171.763 46.4464 171.506 45.5504 171.506 44.5424C171.506 43.5792 171.707 42.7168 172.111 41.9552C172.536 41.1712 173.186 40.5104 174.059 39.9728C174.955 39.4352 176.075 39.0544 177.419 38.8304L184.139 37.7216V40.3424L178.125 41.3504C176.96 41.552 176.109 41.9216 175.571 42.4592C175.056 42.9968 174.799 43.6576 174.799 44.4416C174.799 45.1808 175.09 45.7968 175.672 46.2896C176.277 46.7824 177.027 47.0288 177.923 47.0288C179.066 47.0288 180.051 46.7936 180.88 46.3232C181.731 45.8304 182.392 45.1696 182.863 44.3408C183.355 43.512 183.602 42.5936 183.602 41.5856V36.9824C183.602 35.9968 183.232 35.2016 182.493 34.5968C181.776 33.9696 180.824 33.656 179.637 33.656C178.607 33.656 177.688 33.9248 176.882 34.4624C176.098 34.9776 175.515 35.672 175.135 36.5456L172.413 35.1344C172.749 34.3056 173.287 33.5664 174.026 32.9168C174.765 32.2448 175.627 31.7184 176.613 31.3376C177.599 30.9568 178.629 30.7664 179.704 30.7664C181.093 30.7664 182.314 31.0352 183.367 31.5728C184.419 32.088 185.237 32.816 185.819 33.7568C186.424 34.6752 186.727 35.7504 186.727 36.9824V49.28H183.669V45.8528L184.24 46.0544C183.859 46.7712 183.344 47.3984 182.695 47.936C182.045 48.4736 181.283 48.8992 180.41 49.2128C179.536 49.5264 178.584 49.6832 177.554 49.6832Z" fill="#212121"/>
<path d="M149.769 56V31.1696H152.826V35.0672L152.423 34.2944C153.095 33.2192 154.013 32.368 155.178 31.7408C156.343 31.0912 157.676 30.7664 159.177 30.7664C160.879 30.7664 162.402 31.1808 163.746 32.0096C165.113 32.8384 166.188 33.9696 166.972 35.4032C167.756 36.8144 168.148 38.4272 168.148 40.2416C168.148 42.0112 167.756 43.6128 166.972 45.0464C166.188 46.48 165.113 47.6112 163.746 48.44C162.402 49.2688 160.868 49.6832 159.143 49.6832C157.687 49.6832 156.354 49.3584 155.145 48.7088C153.957 48.0592 153.039 47.1408 152.389 45.9536L152.893 45.416V56H149.769ZM158.908 46.6592C160.05 46.6592 161.069 46.3792 161.965 45.8192C162.861 45.2592 163.556 44.4976 164.049 43.5344C164.564 42.5488 164.821 41.4512 164.821 40.2416C164.821 38.9872 164.564 37.8896 164.049 36.9488C163.556 35.9856 162.861 35.224 161.965 34.664C161.069 34.0816 160.05 33.7904 158.908 33.7904C157.765 33.7904 156.735 34.0704 155.817 34.6304C154.921 35.1904 154.204 35.9632 153.666 36.9488C153.151 37.912 152.893 39.0096 152.893 40.2416C152.893 41.4512 153.151 42.5488 153.666 43.5344C154.204 44.4976 154.921 45.2592 155.817 45.8192C156.735 46.3792 157.765 46.6592 158.908 46.6592Z" fill="#212121"/>
<path d="M141.795 49.28V31.1696H144.92V49.28H141.795ZM141.795 28.28V24.248H144.92V28.28H141.795Z" fill="#212121"/>
<path d="M130.048 49.28V31.1696H133.106V34.496L132.77 34.0256C133.195 32.9952 133.845 32.2336 134.718 31.7408C135.592 31.2256 136.656 30.968 137.91 30.968H139.019V33.9248H137.44C136.163 33.9248 135.133 34.328 134.349 35.1344C133.565 35.9184 133.173 37.0384 133.173 38.4944V49.28H130.048Z" fill="#212121"/>
<path d="M124.085 49.4817C122.315 49.4817 120.949 48.9777 119.986 47.9697C119.045 46.9617 118.575 45.5393 118.575 43.7025V34.1601H115.282V31.1697H115.954C116.76 31.1697 117.399 30.9233 117.869 30.4305C118.339 29.9377 118.575 29.2881 118.575 28.4817V27.0033H121.699V31.1697H125.765V34.1601H121.699V43.6017C121.699 44.2065 121.789 44.7329 121.968 45.1809C122.17 45.6289 122.495 45.9873 122.943 46.2561C123.391 46.5025 123.984 46.6257 124.723 46.6257C124.88 46.6257 125.071 46.6145 125.295 46.5921C125.541 46.5697 125.765 46.5473 125.967 46.5249V49.2801C125.675 49.3473 125.351 49.3921 124.992 49.4145C124.634 49.4593 124.331 49.4817 124.085 49.4817Z" fill="#212121"/>
<path d="M103.654 49.6832C102.354 49.6832 101.178 49.3808 100.126 48.776C99.0951 48.1712 98.2887 47.3312 97.7063 46.256C97.1463 45.1584 96.8663 43.904 96.8663 42.4928V31.1696H99.9911V42.1568C99.9911 43.0528 100.17 43.8368 100.529 44.5088C100.91 45.1808 101.425 45.7072 102.074 46.088C102.746 46.4688 103.508 46.6592 104.359 46.6592C105.21 46.6592 105.961 46.4688 106.61 46.088C107.282 45.7072 107.798 45.1584 108.156 44.4416C108.537 43.7248 108.727 42.8736 108.727 41.888V31.1696H111.886V49.28H108.828V45.752L109.332 46.0544C108.906 47.1968 108.178 48.0928 107.148 48.7424C106.14 49.3696 104.975 49.6832 103.654 49.6832Z" fill="#212121"/>
<path d="M72.7991 49.28V24.248H75.5543L89.935 44.4752L88.6918 44.6096V24.248H92.0182V49.28H89.263L74.9495 28.9184L76.0919 28.784V49.28H72.7991Z" fill="#212121"/>
</svg>
